<?xml version="1.0" encoding="UTF-8"?>
<svg id="Layer_2" data-name="Layer 2" xmlns="http://www.w3.org/2000/svg" xmlns:xlink="http://www.w3.org/1999/xlink" viewBox="0 0 80.51 80.51">
  <defs>
    <style>
      .cls-1 {
        fill: url(#linear-gradient-2);
      }

      .cls-2 {
        fill: none;
        stroke: url(#linear-gradient);
        stroke-miterlimit: 10;
        stroke-width: 1.5px;
      }
    </style>
    <linearGradient id="linear-gradient" x1="0" y1="40.26" x2="80.51" y2="40.26" gradientUnits="userSpaceOnUse">
      <stop offset="0" stop-color="#e897c1"/>
      <stop offset=".16" stop-color="#cb82b7"/>
      <stop offset=".41" stop-color="#a467aa"/>
      <stop offset=".65" stop-color="#8853a1"/>
      <stop offset=".85" stop-color="#77479b"/>
      <stop offset="1" stop-color="#71439a"/>
    </linearGradient>
    <linearGradient id="linear-gradient-2" x1="20.37" y1="16.92" x2="56.63" y2="61.86" xlink:href="#linear-gradient"/>
  </defs>
  <g id="Layer_1-2" data-name="Layer 1">
    <g>
      <circle class="cls-2" cx="40.26" cy="40.26" r="39.51"/>
      <path class="cls-1" d="M51.91,38.86c.03,.53-.05,1.14-.15,1.75-.03,.19,.02,.28,.18,.38,.89,.54,1.27,1.46,1.01,2.47-.28,1.06-.57,2.12-.88,3.17-.28,.94-1.11,1.56-2.1,1.55-.31,0-.47,.1-.6,.38-.61,1.31-1.35,2.54-2.27,3.66-.97,1.18-2.08,2.18-3.45,2.88-2.03,1.04-4.1,1.15-6.2,.2-1.55-.7-2.82-1.77-3.92-3.05-.96-1.12-1.73-2.35-2.36-3.68-.13-.27-.28-.39-.59-.38-.95,0-1.79-.61-2.06-1.52-.32-1.08-.63-2.17-.91-3.27-.24-.92,.14-1.84,.94-2.35,.21-.13,.28-.25,.25-.52-.5-3.6,.55-6.72,2.99-9.39,1.55-1.69,3.44-2.85,5.65-3.47,2.51-.7,4.96-.48,7.32,.58,2.65,1.18,4.66,3.07,5.99,5.64,.6,1.17,.97,2.41,1.11,3.72,.04,.39,.06,.77,.06,1.25Zm-11.64-10.44c-.68-.02-1.35,.06-2.01,.21-2.58,.58-4.66,1.96-6.28,4.02-1.5,1.91-2.25,4.08-2.17,6.52,.02,.61,.1,1.2,.21,1.8,.1,.56-.02,.75-.55,.9-.59,.17-.91,.7-.75,1.3,.27,.98,.54,1.96,.81,2.94,.23,.81,.7,1.07,1.52,.84,.01,0,.02,0,.03-.01,.33-.08,.56,.02,.71,.32,.06,.11,.11,.23,.16,.34,.45,1.03,1.01,2,1.66,2.91,.99,1.38,2.15,2.57,3.64,3.42,.93,.53,1.91,.87,2.99,.88,.93,.01,1.81-.21,2.65-.61,1.32-.63,2.38-1.57,3.29-2.68,1.03-1.25,1.82-2.65,2.47-4.13,.21-.49,.42-.57,.91-.41,.65,.21,1.21-.05,1.41-.7,.3-1.02,.59-2.04,.86-3.07,.17-.66-.15-1.17-.81-1.35-.43-.12-.58-.33-.52-.78,0-.07,.03-.13,.04-.2,.3-1.43,.31-2.85-.02-4.28-.56-2.34-1.83-4.24-3.68-5.75-1.91-1.55-4.09-2.43-6.58-2.43Zm10.79-6.32c-.88,0-1.76,0-2.64,0-.34,0-.57,.22-.61,.53-.04,.32,.16,.6,.5,.68,.17,.04,.34,.03,.51,.03,1.5,0,2.99-.02,4.49,.01,1.67,.04,3.01,.77,4.05,2.05,.81,1,1.2,2.16,1.19,3.46-.01,1.42,0,2.83,0,4.25,0,.18,0,.37,.05,.54,.09,.27,.35,.45,.63,.42,.28-.02,.51-.23,.55-.52,.01-.09,0-.18,0-.27,0-1.55,0-3.11,0-4.66,0-.18,0-.37-.02-.55-.22-1.75-.98-3.22-2.33-4.37-1.22-1.04-2.62-1.59-4.23-1.61-.72,0-1.44,0-2.16,0h0Zm8.74,30.27c0-.88,0-1.76,0-2.64,0-.34-.23-.57-.54-.61-.32-.04-.59,.17-.67,.5-.04,.18-.04,.36-.04,.55,0,1.53,.03,3.06-.02,4.59-.05,1.45-.68,2.67-1.73,3.65-1.1,1.02-2.41,1.48-3.91,1.47-1.39-.01-2.79,0-4.18,0-.13,0-.25,0-.38,.01-.29,.05-.49,.27-.51,.56-.02,.3,.13,.53,.42,.63,.16,.06,.32,.05,.47,.05,1.44,0,2.88,0,4.32,0,.78,0,1.54-.13,2.28-.39,2.72-.96,4.52-3.59,4.49-6.32,0-.69,0-1.37,0-2.06h0Zm-37.78-2.42c0-.11,0-.23-.02-.34-.06-.28-.31-.48-.59-.49-.28,0-.53,.18-.61,.46-.04,.13-.03,.27-.03,.41,0,1.49,0,2.97,0,4.46,0,.34,.04,.68,.1,1.02,.27,1.62,1.03,2.96,2.27,4.03,1.22,1.05,2.66,1.6,4.26,1.63,1.52,.03,3.04,0,4.56,0,.11,0,.23,0,.34-.03,.28-.07,.48-.32,.48-.59,0-.29-.2-.55-.5-.61-.12-.02-.25-.02-.38-.02-1.43,0-2.86,0-4.28,0-.38,0-.75-.03-1.12-.1-2.6-.5-4.46-2.76-4.47-5.41,0-.7,0-1.39,0-2.09,0-.78,0-1.55,0-2.33Zm5.51-27.86c-.47,0-.93,.04-1.39,.14-3.01,.65-5.27,3.19-5.36,6.45-.04,1.53,0,3.06,0,4.59,0,.13,0,.25,.04,.37,.1,.3,.35,.46,.66,.43,.29-.03,.5-.23,.55-.53,.02-.11,.01-.23,.01-.34,0-1.41,0-2.81,0-4.22,0-.31,.01-.61,.06-.92,.29-1.83,1.24-3.19,2.85-4.08,.83-.46,1.72-.65,2.67-.64,1.39,.01,2.79,0,4.18,0,.18,0,.37,0,.54-.05,.3-.09,.48-.34,.45-.64-.02-.3-.24-.52-.56-.55-.09,0-.18,0-.27,0-.79,0-1.58,0-2.36,0-.69,0-1.37,0-2.06,0Z"/>
    </g>
  </g>
</svg>