<?xml version="1.0" encoding="UTF-8"?>
<svg id="Layer_2" data-name="Layer 2" xmlns="http://www.w3.org/2000/svg" xmlns:xlink="http://www.w3.org/1999/xlink" viewBox="0 0 145.69 28.9">
  <defs>
    <style>
      .cls-1 {
        fill: #ffe000;
      }

      .cls-2 {
        fill: url(#linear-gradient);
      }
    </style>
    <linearGradient id="linear-gradient" x1="11.7" y1="10.42" x2="139.49" y2="18.59" gradientUnits="userSpaceOnUse">
      <stop offset="0" stop-color="#7a21bb"/>
      <stop offset=".1" stop-color="#9538c2"/>
      <stop offset=".31" stop-color="#dc75d5"/>
      <stop offset=".4" stop-color="#ff93df"/>
      <stop offset=".42" stop-color="#f389db"/>
      <stop offset=".5" stop-color="#ce69d1"/>
      <stop offset=".59" stop-color="#af4fc9"/>
      <stop offset=".68" stop-color="#983ac3"/>
      <stop offset=".77" stop-color="#872cbe"/>
      <stop offset=".87" stop-color="#7d23bb"/>
      <stop offset="1" stop-color="#7a21bb"/>
    </linearGradient>
  </defs>
  <g id="Layer_1-2" data-name="Layer 1">
    <g>
      <rect class="cls-1" y="0" width="145.69" height="28.9" rx="9.74" ry="9.74"/>
      <path class="cls-2" d="M8.28,18.85c-.87-.43-1.54-1.03-2-1.8-.47-.77-.7-1.66-.7-2.66,0-1.34,.31-2.56,.92-3.65s1.48-1.95,2.59-2.58c1.11-.63,2.39-.95,3.84-.95,1.03,0,1.95,.17,2.74,.51,.79,.34,1.39,.84,1.8,1.48l-1.6,1.35c-.67-.93-1.7-1.4-3.09-1.4-.99,0-1.86,.23-2.61,.68-.75,.45-1.33,1.07-1.74,1.85-.41,.78-.61,1.63-.61,2.57,0,1.01,.32,1.81,.97,2.4,.65,.59,1.57,.89,2.76,.89,1.38,0,2.51-.46,3.39-1.38l1.3,1.4c-.57,.65-1.27,1.13-2.1,1.45-.83,.32-1.75,.48-2.76,.48-1.19,0-2.23-.21-3.09-.64Zm11.07,.08c-.67-.33-1.18-.8-1.54-1.41-.36-.6-.55-1.3-.55-2.1,0-1.01,.23-1.92,.69-2.73,.46-.81,1.1-1.44,1.93-1.9s1.75-.69,2.79-.69c.89,0,1.67,.17,2.34,.49,.67,.33,1.19,.8,1.55,1.4s.55,1.3,.55,2.1c0,1.01-.23,1.92-.7,2.73-.47,.81-1.11,1.44-1.94,1.91s-1.75,.7-2.79,.7c-.89,0-1.66-.17-2.33-.5Zm4.07-1.76c.47-.29,.84-.69,1.12-1.21,.27-.52,.41-1.1,.41-1.76,0-.72-.21-1.28-.63-1.68-.42-.4-1.01-.61-1.77-.61-.6,0-1.14,.15-1.61,.44-.47,.29-.84,.69-1.12,1.21s-.41,1.11-.41,1.76c0,.72,.21,1.28,.63,1.68,.42,.4,1.01,.61,1.77,.61,.6,0,1.14-.15,1.61-.43Zm20.22-6.28c.58,.52,.88,1.27,.88,2.25,0,.36-.04,.74-.12,1.13l-1.01,5.05h-2.13l1.01-5c.04-.23,.07-.47,.07-.72,0-1.09-.58-1.64-1.74-1.64-1.51,0-2.44,.87-2.8,2.61l-.96,4.74h-2.13l1.01-5c.04-.23,.07-.47,.07-.72,0-1.09-.58-1.64-1.74-1.64-1.51,0-2.44,.88-2.8,2.63l-.95,4.72h-2.13l1.81-9.1h2.03l-.19,.99c.77-.73,1.77-1.09,2.98-1.09,.66,0,1.23,.13,1.72,.38,.49,.26,.86,.63,1.11,1.12,.93-1,2.13-1.5,3.6-1.5,1.02,0,1.83,.26,2.41,.78Zm17.95,0c.58,.52,.88,1.27,.88,2.25,0,.36-.04,.74-.12,1.13l-1.01,5.05h-2.13l1.01-5c.04-.23,.07-.47,.07-.72,0-1.09-.58-1.64-1.74-1.64-1.51,0-2.44,.87-2.8,2.61l-.96,4.74h-2.13l1.01-5c.04-.23,.07-.47,.07-.72,0-1.09-.58-1.64-1.74-1.64-1.51,0-2.44,.88-2.8,2.63l-.95,4.72h-2.13l1.81-9.1h2.03l-.19,.99c.77-.73,1.77-1.09,2.98-1.09,.66,0,1.23,.13,1.72,.38,.49,.26,.86,.63,1.11,1.12,.93-1,2.13-1.5,3.6-1.5,1.02,0,1.83,.26,2.41,.78Zm4.29-.68h2.13l-1.81,9.1h-2.13l1.81-9.1Zm.63-1.85c-.24-.23-.36-.51-.36-.84,0-.39,.13-.71,.4-.97s.62-.39,1.05-.39c.38,0,.68,.11,.92,.33,.24,.22,.36,.49,.36,.81,0,.42-.13,.76-.4,1.02-.27,.26-.62,.39-1.05,.39-.38,0-.68-.12-.92-.35Zm11.69,2.55c.6,.53,.9,1.29,.9,2.27,0,.27-.04,.64-.12,1.09l-1.01,5.05h-2.13l.99-5c.05-.23,.07-.46,.07-.7,0-1.1-.61-1.65-1.82-1.65-.78,0-1.43,.22-1.94,.66-.51,.44-.86,1.09-1.04,1.97l-.95,4.72h-2.13l1.81-9.1h2.03l-.2,1.01c.82-.74,1.86-1.11,3.14-1.11,1.02,0,1.83,.27,2.43,.8Zm13.43-.7l-1.55,7.72c-.34,1.67-.97,2.89-1.89,3.66-.92,.77-2.17,1.15-3.73,1.15-1.78,0-3.21-.42-4.26-1.24l1.11-1.6c.35,.31,.82,.55,1.41,.74s1.21,.28,1.88,.28c.98,0,1.73-.22,2.25-.65,.52-.43,.87-1.09,1.04-1.98l.08-.44c-.82,.71-1.81,1.06-2.98,1.06-.78,0-1.49-.15-2.11-.46-.62-.31-1.1-.74-1.45-1.31-.35-.57-.52-1.23-.52-1.99,0-.93,.22-1.78,.67-2.55,.44-.77,1.06-1.37,1.85-1.82,.79-.44,1.67-.67,2.65-.67,.72,0,1.36,.13,1.93,.4,.57,.27,1,.67,1.3,1.2l.29-1.5h2.05Zm-4.56,6.49c.47-.27,.84-.64,1.11-1.11s.4-1,.4-1.59c0-.65-.21-1.16-.63-1.53-.42-.37-1.01-.55-1.76-.55-.6,0-1.14,.13-1.62,.4-.48,.27-.85,.64-1.12,1.11s-.4,1-.4,1.59c0,.64,.21,1.14,.64,1.52s1.01,.56,1.76,.56c.6,0,1.14-.13,1.61-.4Zm11.71,2.4c-.84-.26-1.5-.6-1.98-1.01l.94-1.74c.5,.4,1.09,.71,1.78,.95,.69,.23,1.39,.35,2.11,.35,.88,0,1.57-.15,2.09-.45,.52-.3,.78-.71,.78-1.24,0-.3-.11-.54-.32-.74-.21-.2-.47-.36-.78-.49s-.75-.27-1.3-.43c-.77-.23-1.4-.45-1.88-.66-.48-.21-.89-.53-1.23-.95-.34-.42-.51-.97-.51-1.64,0-.77,.22-1.45,.66-2.03,.44-.58,1.05-1.03,1.83-1.35,.78-.32,1.69-.48,2.71-.48,.77,0,1.51,.09,2.2,.26s1.29,.42,1.79,.74l-.87,1.76c-.44-.3-.94-.52-1.5-.68-.56-.16-1.14-.24-1.74-.24-.89,0-1.59,.16-2.11,.49-.52,.32-.78,.75-.78,1.29,0,.31,.11,.56,.32,.77s.48,.37,.78,.49c.31,.12,.76,.27,1.35,.45,.75,.22,1.36,.43,1.84,.63,.48,.2,.88,.51,1.22,.9,.33,.4,.5,.92,.5,1.55,0,.78-.22,1.47-.66,2.05-.44,.58-1.06,1.03-1.86,1.35-.8,.32-1.72,.48-2.75,.48-.92,0-1.8-.13-2.64-.39Zm11.43-.16c-.67-.33-1.18-.8-1.54-1.41-.36-.6-.55-1.3-.55-2.1,0-1.01,.23-1.92,.69-2.73,.46-.81,1.1-1.44,1.93-1.9s1.75-.69,2.79-.69c.89,0,1.67,.17,2.34,.49,.67,.33,1.19,.8,1.55,1.4s.55,1.3,.55,2.1c0,1.01-.23,1.92-.7,2.73-.47,.81-1.11,1.44-1.94,1.91s-1.75,.7-2.79,.7c-.89,0-1.66-.17-2.33-.5Zm4.07-1.76c.47-.29,.84-.69,1.12-1.21,.27-.52,.41-1.1,.41-1.76,0-.72-.21-1.28-.63-1.68-.42-.4-1.01-.61-1.77-.61-.6,0-1.14,.15-1.61,.44-.47,.29-.84,.69-1.12,1.21s-.41,1.11-.41,1.76c0,.72,.21,1.28,.63,1.68,.42,.4,1.01,.61,1.77,.61,.6,0,1.14-.15,1.61-.43Zm6.92,1.76c-.67-.33-1.18-.8-1.54-1.41-.36-.6-.55-1.3-.55-2.1,0-1.01,.23-1.92,.69-2.73,.46-.81,1.1-1.44,1.93-1.9s1.75-.69,2.79-.69c.89,0,1.67,.17,2.34,.49,.67,.33,1.19,.8,1.55,1.4s.55,1.3,.55,2.1c0,1.01-.23,1.92-.7,2.73-.47,.81-1.11,1.44-1.94,1.91s-1.75,.7-2.79,.7c-.89,0-1.66-.17-2.33-.5Zm4.07-1.76c.47-.29,.84-.69,1.12-1.21,.27-.52,.41-1.1,.41-1.76,0-.72-.21-1.28-.63-1.68-.42-.4-1.01-.61-1.77-.61-.6,0-1.14,.15-1.61,.44-.47,.29-.84,.69-1.12,1.21s-.41,1.11-.41,1.76c0,.72,.21,1.28,.63,1.68,.42,.4,1.01,.61,1.77,.61,.6,0,1.14-.15,1.61-.43Zm13.95-6.27c.6,.53,.9,1.29,.9,2.27,0,.27-.04,.64-.12,1.09l-1.01,5.05h-2.13l.99-5c.05-.23,.07-.46,.07-.7,0-1.1-.61-1.65-1.82-1.65-.78,0-1.43,.22-1.94,.66-.51,.44-.86,1.09-1.04,1.97l-.95,4.72h-2.13l1.81-9.1h2.03l-.2,1.01c.82-.74,1.86-1.11,3.14-1.11,1.02,0,1.83,.27,2.43,.8Z"/>
    </g>
  </g>
</svg>